<mxfile host="app.diagrams.net" modified="2020-08-05T01:11:29.970Z" agent="5.0 (Windows)" etag="TZjf8hA6LiSHnjWYNUA2" version="13.5.4" type="github">
  <diagram id="QXO7frgfRFghtwRwL6mL" name="Page-1">
    <mxGraphModel dx="2512" dy="1863" grid="1" gridSize="10" guides="1" tooltips="1" connect="1" arrows="1" fold="1" page="1" pageScale="1" pageWidth="850" pageHeight="1100" math="0" shadow="0">
      <root>
        <mxCell id="0" />
        <mxCell id="1" parent="0" />
        <mxCell id="TN6WV2yWwlr5OLhmlhRr-4" value="User Input for Shape to draw" style="rounded=0;whiteSpace=wrap;html=1;" parent="1" vertex="1">
          <mxGeometry x="250" y="90" width="120" height="60" as="geometry" />
        </mxCell>
        <mxCell id="TN6WV2yWwlr5OLhmlhRr-5" value="" style="endArrow=classic;html=1;entryX=0.5;entryY=0;entryDx=0;entryDy=0;" parent="1" source="TN6WV2yWwlr5OLhmlhRr-4" target="TN6WV2yWwlr5OLhmlhRr-34" edge="1">
          <mxGeometry width="50" height="50" relative="1" as="geometry">
            <mxPoint x="300" y="410" as="sourcePoint" />
            <mxPoint x="314" y="160" as="targetPoint" />
          </mxGeometry>
        </mxCell>
        <mxCell id="TN6WV2yWwlr5OLhmlhRr-8" value="True" style="edgeStyle=orthogonalEdgeStyle;rounded=0;orthogonalLoop=1;jettySize=auto;html=1;entryX=0;entryY=0.5;entryDx=0;entryDy=0;" parent="1" source="TN6WV2yWwlr5OLhmlhRr-6" target="TQ9lDx-GRib5tjvYvlIN-26" edge="1">
          <mxGeometry relative="1" as="geometry">
            <mxPoint x="500" y="300" as="targetPoint" />
          </mxGeometry>
        </mxCell>
        <mxCell id="TN6WV2yWwlr5OLhmlhRr-10" value="False" style="edgeStyle=orthogonalEdgeStyle;rounded=0;orthogonalLoop=1;jettySize=auto;html=1;" parent="1" source="TN6WV2yWwlr5OLhmlhRr-6" target="TN6WV2yWwlr5OLhmlhRr-9" edge="1">
          <mxGeometry relative="1" as="geometry" />
        </mxCell>
        <mxCell id="TN6WV2yWwlr5OLhmlhRr-6" value="If Shape == Triangle" style="rhombus;whiteSpace=wrap;html=1;" parent="1" vertex="1">
          <mxGeometry x="255" y="390" width="110" height="80" as="geometry" />
        </mxCell>
        <mxCell id="TN6WV2yWwlr5OLhmlhRr-36" style="edgeStyle=orthogonalEdgeStyle;rounded=0;orthogonalLoop=1;jettySize=auto;html=1;entryX=1;entryY=0.5;entryDx=0;entryDy=0;" parent="1" target="TN6WV2yWwlr5OLhmlhRr-43" edge="1">
          <mxGeometry relative="1" as="geometry">
            <mxPoint x="485" y="190" as="targetPoint" />
            <Array as="points">
              <mxPoint x="640" y="430" />
              <mxPoint x="640" y="240" />
            </Array>
            <mxPoint x="550" y="430" as="sourcePoint" />
          </mxGeometry>
        </mxCell>
        <mxCell id="TN6WV2yWwlr5OLhmlhRr-12" value="True" style="edgeStyle=orthogonalEdgeStyle;rounded=0;orthogonalLoop=1;jettySize=auto;html=1;" parent="1" source="TN6WV2yWwlr5OLhmlhRr-9" target="TN6WV2yWwlr5OLhmlhRr-11" edge="1">
          <mxGeometry relative="1" as="geometry" />
        </mxCell>
        <mxCell id="TN6WV2yWwlr5OLhmlhRr-14" value="False" style="edgeStyle=orthogonalEdgeStyle;rounded=0;orthogonalLoop=1;jettySize=auto;html=1;" parent="1" source="TN6WV2yWwlr5OLhmlhRr-9" target="TN6WV2yWwlr5OLhmlhRr-13" edge="1">
          <mxGeometry relative="1" as="geometry" />
        </mxCell>
        <mxCell id="TN6WV2yWwlr5OLhmlhRr-9" value="if shape == square" style="rhombus;whiteSpace=wrap;html=1;" parent="1" vertex="1">
          <mxGeometry x="270" y="550" width="80" height="80" as="geometry" />
        </mxCell>
        <mxCell id="TN6WV2yWwlr5OLhmlhRr-37" style="edgeStyle=orthogonalEdgeStyle;rounded=0;orthogonalLoop=1;jettySize=auto;html=1;entryX=1;entryY=0.25;entryDx=0;entryDy=0;" parent="1" source="TN6WV2yWwlr5OLhmlhRr-43" target="TN6WV2yWwlr5OLhmlhRr-43" edge="1">
          <mxGeometry relative="1" as="geometry">
            <mxPoint x="490" y="200" as="targetPoint" />
            <Array as="points">
              <mxPoint x="500" y="220" />
              <mxPoint x="560" y="220" />
            </Array>
          </mxGeometry>
        </mxCell>
        <mxCell id="TN6WV2yWwlr5OLhmlhRr-11" value="Draw Square" style="whiteSpace=wrap;html=1;" parent="1" vertex="1">
          <mxGeometry x="440" y="560" width="120" height="60" as="geometry" />
        </mxCell>
        <mxCell id="TN6WV2yWwlr5OLhmlhRr-16" value="True" style="edgeStyle=orthogonalEdgeStyle;rounded=0;orthogonalLoop=1;jettySize=auto;html=1;" parent="1" source="TN6WV2yWwlr5OLhmlhRr-13" target="TN6WV2yWwlr5OLhmlhRr-15" edge="1">
          <mxGeometry relative="1" as="geometry" />
        </mxCell>
        <mxCell id="TN6WV2yWwlr5OLhmlhRr-18" value="" style="edgeStyle=orthogonalEdgeStyle;rounded=0;orthogonalLoop=1;jettySize=auto;html=1;" parent="1" source="TN6WV2yWwlr5OLhmlhRr-13" target="TN6WV2yWwlr5OLhmlhRr-17" edge="1">
          <mxGeometry relative="1" as="geometry" />
        </mxCell>
        <mxCell id="TN6WV2yWwlr5OLhmlhRr-19" value="False" style="edgeLabel;html=1;align=center;verticalAlign=middle;resizable=0;points=[];" parent="TN6WV2yWwlr5OLhmlhRr-18" vertex="1" connectable="0">
          <mxGeometry x="-0.2667" y="-2" relative="1" as="geometry">
            <mxPoint as="offset" />
          </mxGeometry>
        </mxCell>
        <mxCell id="TN6WV2yWwlr5OLhmlhRr-13" value="If shape == hexagon" style="rhombus;whiteSpace=wrap;html=1;" parent="1" vertex="1">
          <mxGeometry x="270" y="710" width="80" height="80" as="geometry" />
        </mxCell>
        <mxCell id="TN6WV2yWwlr5OLhmlhRr-38" style="edgeStyle=orthogonalEdgeStyle;rounded=0;orthogonalLoop=1;jettySize=auto;html=1;entryX=1;entryY=0.5;entryDx=0;entryDy=0;" parent="1" source="TN6WV2yWwlr5OLhmlhRr-15" target="TN6WV2yWwlr5OLhmlhRr-43" edge="1">
          <mxGeometry relative="1" as="geometry">
            <mxPoint x="490" y="200" as="targetPoint" />
            <Array as="points">
              <mxPoint x="640" y="750" />
              <mxPoint x="640" y="240" />
              <mxPoint x="545" y="240" />
            </Array>
          </mxGeometry>
        </mxCell>
        <mxCell id="TN6WV2yWwlr5OLhmlhRr-15" value="Draw Hexagon" style="whiteSpace=wrap;html=1;" parent="1" vertex="1">
          <mxGeometry x="440" y="720" width="120" height="60" as="geometry" />
        </mxCell>
        <mxCell id="TN6WV2yWwlr5OLhmlhRr-39" style="edgeStyle=orthogonalEdgeStyle;rounded=0;orthogonalLoop=1;jettySize=auto;html=1;entryX=1;entryY=0.5;entryDx=0;entryDy=0;" parent="1" source="TN6WV2yWwlr5OLhmlhRr-17" target="TN6WV2yWwlr5OLhmlhRr-43" edge="1">
          <mxGeometry relative="1" as="geometry">
            <mxPoint x="490" y="210" as="targetPoint" />
            <Array as="points">
              <mxPoint x="640" y="860" />
              <mxPoint x="640" y="240" />
            </Array>
          </mxGeometry>
        </mxCell>
        <mxCell id="TN6WV2yWwlr5OLhmlhRr-17" value="Print Error" style="whiteSpace=wrap;html=1;" parent="1" vertex="1">
          <mxGeometry x="250" y="830" width="120" height="60" as="geometry" />
        </mxCell>
        <mxCell id="TN6WV2yWwlr5OLhmlhRr-21" value="" style="edgeStyle=orthogonalEdgeStyle;rounded=0;orthogonalLoop=1;jettySize=auto;html=1;" parent="1" source="TN6WV2yWwlr5OLhmlhRr-20" target="TN6WV2yWwlr5OLhmlhRr-4" edge="1">
          <mxGeometry relative="1" as="geometry" />
        </mxCell>
        <mxCell id="TN6WV2yWwlr5OLhmlhRr-20" value="Create Turtle" style="rounded=0;whiteSpace=wrap;html=1;" parent="1" vertex="1">
          <mxGeometry x="250" y="-20" width="120" height="60" as="geometry" />
        </mxCell>
        <mxCell id="TN6WV2yWwlr5OLhmlhRr-25" value="" style="edgeStyle=orthogonalEdgeStyle;rounded=0;orthogonalLoop=1;jettySize=auto;html=1;" parent="1" source="TN6WV2yWwlr5OLhmlhRr-23" target="TN6WV2yWwlr5OLhmlhRr-24" edge="1">
          <mxGeometry relative="1" as="geometry" />
        </mxCell>
        <mxCell id="TN6WV2yWwlr5OLhmlhRr-23" value="user Input" style="rounded=0;whiteSpace=wrap;html=1;" parent="1" vertex="1">
          <mxGeometry x="275" y="960" width="120" height="60" as="geometry" />
        </mxCell>
        <mxCell id="TN6WV2yWwlr5OLhmlhRr-27" value="" style="edgeStyle=orthogonalEdgeStyle;rounded=0;orthogonalLoop=1;jettySize=auto;html=1;" parent="1" source="TN6WV2yWwlr5OLhmlhRr-24" target="TN6WV2yWwlr5OLhmlhRr-26" edge="1">
          <mxGeometry relative="1" as="geometry" />
        </mxCell>
        <mxCell id="TN6WV2yWwlr5OLhmlhRr-31" value="True" style="edgeLabel;html=1;align=center;verticalAlign=middle;resizable=0;points=[];" parent="TN6WV2yWwlr5OLhmlhRr-27" vertex="1" connectable="0">
          <mxGeometry x="-0.3111" y="-3" relative="1" as="geometry">
            <mxPoint as="offset" />
          </mxGeometry>
        </mxCell>
        <mxCell id="TN6WV2yWwlr5OLhmlhRr-33" value="False" style="edgeStyle=orthogonalEdgeStyle;rounded=0;orthogonalLoop=1;jettySize=auto;html=1;" parent="1" source="TN6WV2yWwlr5OLhmlhRr-24" target="TN6WV2yWwlr5OLhmlhRr-32" edge="1">
          <mxGeometry relative="1" as="geometry" />
        </mxCell>
        <mxCell id="TN6WV2yWwlr5OLhmlhRr-24" value="While input != done" style="rhombus;whiteSpace=wrap;html=1;rounded=0;" parent="1" vertex="1">
          <mxGeometry x="270" y="1090" width="130" height="80" as="geometry" />
        </mxCell>
        <mxCell id="TN6WV2yWwlr5OLhmlhRr-29" value="" style="edgeStyle=orthogonalEdgeStyle;rounded=0;orthogonalLoop=1;jettySize=auto;html=1;" parent="1" source="TN6WV2yWwlr5OLhmlhRr-26" target="TN6WV2yWwlr5OLhmlhRr-28" edge="1">
          <mxGeometry relative="1" as="geometry" />
        </mxCell>
        <mxCell id="TN6WV2yWwlr5OLhmlhRr-26" value="print input" style="whiteSpace=wrap;html=1;rounded=0;" parent="1" vertex="1">
          <mxGeometry x="275" y="1260" width="120" height="60" as="geometry" />
        </mxCell>
        <mxCell id="TN6WV2yWwlr5OLhmlhRr-30" style="edgeStyle=orthogonalEdgeStyle;rounded=0;orthogonalLoop=1;jettySize=auto;html=1;entryX=0;entryY=0.5;entryDx=0;entryDy=0;" parent="1" source="TN6WV2yWwlr5OLhmlhRr-28" target="TN6WV2yWwlr5OLhmlhRr-24" edge="1">
          <mxGeometry relative="1" as="geometry">
            <Array as="points">
              <mxPoint x="200" y="1430" />
              <mxPoint x="200" y="1130" />
            </Array>
          </mxGeometry>
        </mxCell>
        <mxCell id="TN6WV2yWwlr5OLhmlhRr-28" value="User&amp;nbsp; input" style="whiteSpace=wrap;html=1;rounded=0;" parent="1" vertex="1">
          <mxGeometry x="275" y="1400" width="120" height="60" as="geometry" />
        </mxCell>
        <mxCell id="TN6WV2yWwlr5OLhmlhRr-32" value="Done" style="whiteSpace=wrap;html=1;rounded=0;" parent="1" vertex="1">
          <mxGeometry x="485" y="1100" width="120" height="60" as="geometry" />
        </mxCell>
        <mxCell id="TN6WV2yWwlr5OLhmlhRr-35" value="True" style="edgeStyle=orthogonalEdgeStyle;rounded=0;orthogonalLoop=1;jettySize=auto;html=1;" parent="1" source="TN6WV2yWwlr5OLhmlhRr-34" target="TN6WV2yWwlr5OLhmlhRr-6" edge="1">
          <mxGeometry relative="1" as="geometry" />
        </mxCell>
        <mxCell id="TN6WV2yWwlr5OLhmlhRr-41" value="" style="edgeStyle=orthogonalEdgeStyle;rounded=0;orthogonalLoop=1;jettySize=auto;html=1;" parent="1" source="TN6WV2yWwlr5OLhmlhRr-34" target="TN6WV2yWwlr5OLhmlhRr-40" edge="1">
          <mxGeometry relative="1" as="geometry" />
        </mxCell>
        <mxCell id="TN6WV2yWwlr5OLhmlhRr-42" value="False" style="edgeLabel;html=1;align=center;verticalAlign=middle;resizable=0;points=[];" parent="TN6WV2yWwlr5OLhmlhRr-41" vertex="1" connectable="0">
          <mxGeometry x="-0.2388" relative="1" as="geometry">
            <mxPoint as="offset" />
          </mxGeometry>
        </mxCell>
        <mxCell id="TN6WV2yWwlr5OLhmlhRr-34" value="While shape!= Done" style="rhombus;whiteSpace=wrap;html=1;" parent="1" vertex="1">
          <mxGeometry x="237.5" y="200" width="145" height="80" as="geometry" />
        </mxCell>
        <mxCell id="TN6WV2yWwlr5OLhmlhRr-40" value="Done" style="whiteSpace=wrap;html=1;" parent="1" vertex="1">
          <mxGeometry x="25" y="210" width="120" height="60" as="geometry" />
        </mxCell>
        <mxCell id="TN6WV2yWwlr5OLhmlhRr-44" value="" style="edgeStyle=orthogonalEdgeStyle;rounded=0;orthogonalLoop=1;jettySize=auto;html=1;" parent="1" source="TN6WV2yWwlr5OLhmlhRr-43" target="TN6WV2yWwlr5OLhmlhRr-34" edge="1">
          <mxGeometry relative="1" as="geometry" />
        </mxCell>
        <mxCell id="TN6WV2yWwlr5OLhmlhRr-43" value="Input shape or done" style="rounded=0;whiteSpace=wrap;html=1;" parent="1" vertex="1">
          <mxGeometry x="440" y="210" width="120" height="60" as="geometry" />
        </mxCell>
        <mxCell id="TN6WV2yWwlr5OLhmlhRr-45" style="edgeStyle=orthogonalEdgeStyle;rounded=0;orthogonalLoop=1;jettySize=auto;html=1;" parent="1" source="TN6WV2yWwlr5OLhmlhRr-11" target="TN6WV2yWwlr5OLhmlhRr-43" edge="1">
          <mxGeometry relative="1" as="geometry">
            <mxPoint x="515" y="590.0000000000005" as="sourcePoint" />
            <mxPoint x="490" y="200" as="targetPoint" />
            <Array as="points">
              <mxPoint x="640" y="590" />
              <mxPoint x="640" y="240" />
            </Array>
          </mxGeometry>
        </mxCell>
        <mxCell id="TQ9lDx-GRib5tjvYvlIN-8" value="False" style="edgeLabel;html=1;align=center;verticalAlign=middle;resizable=0;points=[];" vertex="1" connectable="0" parent="1">
          <mxGeometry x="145" y="581" as="geometry" />
        </mxCell>
        <mxCell id="TQ9lDx-GRib5tjvYvlIN-9" value="For a = 0...2" style="rhombus;whiteSpace=wrap;html=1;" vertex="1" parent="1">
          <mxGeometry x="45" y="540" width="80" height="80" as="geometry" />
        </mxCell>
        <mxCell id="TQ9lDx-GRib5tjvYvlIN-10" value="" style="edgeStyle=orthogonalEdgeStyle;rounded=0;orthogonalLoop=1;jettySize=auto;html=1;" edge="1" parent="1" source="TQ9lDx-GRib5tjvYvlIN-11" target="TQ9lDx-GRib5tjvYvlIN-13">
          <mxGeometry relative="1" as="geometry" />
        </mxCell>
        <mxCell id="TQ9lDx-GRib5tjvYvlIN-11" value="Move Forward" style="rounded=0;whiteSpace=wrap;html=1;" vertex="1" parent="1">
          <mxGeometry x="25" y="640" width="120" height="60" as="geometry" />
        </mxCell>
        <mxCell id="TQ9lDx-GRib5tjvYvlIN-12" style="edgeStyle=orthogonalEdgeStyle;rounded=0;orthogonalLoop=1;jettySize=auto;html=1;entryX=0;entryY=0.5;entryDx=0;entryDy=0;exitX=0;exitY=0.5;exitDx=0;exitDy=0;" edge="1" parent="1" source="TQ9lDx-GRib5tjvYvlIN-13" target="TQ9lDx-GRib5tjvYvlIN-9">
          <mxGeometry relative="1" as="geometry">
            <Array as="points">
              <mxPoint x="5" y="750" />
              <mxPoint x="5" y="670" />
              <mxPoint x="15" y="670" />
              <mxPoint x="15" y="580" />
            </Array>
          </mxGeometry>
        </mxCell>
        <mxCell id="TQ9lDx-GRib5tjvYvlIN-13" value="Turn Left 120" style="rounded=0;whiteSpace=wrap;html=1;" vertex="1" parent="1">
          <mxGeometry x="25" y="720" width="120" height="60" as="geometry" />
        </mxCell>
        <mxCell id="TQ9lDx-GRib5tjvYvlIN-14" value="True" style="endArrow=classic;html=1;exitX=0.5;exitY=1;exitDx=0;exitDy=0;entryX=0.5;entryY=0;entryDx=0;entryDy=0;" edge="1" parent="1" source="TQ9lDx-GRib5tjvYvlIN-9" target="TQ9lDx-GRib5tjvYvlIN-11">
          <mxGeometry width="50" height="50" relative="1" as="geometry">
            <mxPoint x="45" y="710" as="sourcePoint" />
            <mxPoint x="95" y="660" as="targetPoint" />
          </mxGeometry>
        </mxCell>
        <mxCell id="TQ9lDx-GRib5tjvYvlIN-15" value="False" style="edgeLabel;html=1;align=center;verticalAlign=middle;resizable=0;points=[];" vertex="1" connectable="0" parent="1">
          <mxGeometry x="145" y="581" as="geometry" />
        </mxCell>
        <mxCell id="TQ9lDx-GRib5tjvYvlIN-22" style="edgeStyle=orthogonalEdgeStyle;rounded=0;orthogonalLoop=1;jettySize=auto;html=1;exitX=1;exitY=0.5;exitDx=0;exitDy=0;" edge="1" parent="1" source="TQ9lDx-GRib5tjvYvlIN-16">
          <mxGeometry relative="1" as="geometry">
            <mxPoint x="200" y="620" as="targetPoint" />
          </mxGeometry>
        </mxCell>
        <mxCell id="TQ9lDx-GRib5tjvYvlIN-16" value="For a = 0...2" style="rhombus;whiteSpace=wrap;html=1;" vertex="1" parent="1">
          <mxGeometry x="45" y="540" width="80" height="80" as="geometry" />
        </mxCell>
        <mxCell id="TQ9lDx-GRib5tjvYvlIN-17" value="" style="edgeStyle=orthogonalEdgeStyle;rounded=0;orthogonalLoop=1;jettySize=auto;html=1;" edge="1" parent="1" source="TQ9lDx-GRib5tjvYvlIN-18" target="TQ9lDx-GRib5tjvYvlIN-20">
          <mxGeometry relative="1" as="geometry" />
        </mxCell>
        <mxCell id="TQ9lDx-GRib5tjvYvlIN-18" value="Move Forward" style="rounded=0;whiteSpace=wrap;html=1;" vertex="1" parent="1">
          <mxGeometry x="25" y="640" width="120" height="60" as="geometry" />
        </mxCell>
        <mxCell id="TQ9lDx-GRib5tjvYvlIN-19" style="edgeStyle=orthogonalEdgeStyle;rounded=0;orthogonalLoop=1;jettySize=auto;html=1;entryX=0;entryY=0.5;entryDx=0;entryDy=0;exitX=0;exitY=0.5;exitDx=0;exitDy=0;" edge="1" parent="1" source="TQ9lDx-GRib5tjvYvlIN-20" target="TQ9lDx-GRib5tjvYvlIN-16">
          <mxGeometry relative="1" as="geometry">
            <Array as="points">
              <mxPoint x="5" y="750" />
              <mxPoint x="5" y="670" />
              <mxPoint x="15" y="670" />
              <mxPoint x="15" y="580" />
            </Array>
          </mxGeometry>
        </mxCell>
        <mxCell id="TQ9lDx-GRib5tjvYvlIN-20" value="Turn Left 120" style="rounded=0;whiteSpace=wrap;html=1;" vertex="1" parent="1">
          <mxGeometry x="25" y="720" width="120" height="60" as="geometry" />
        </mxCell>
        <mxCell id="TQ9lDx-GRib5tjvYvlIN-21" value="True" style="endArrow=classic;html=1;exitX=0.5;exitY=1;exitDx=0;exitDy=0;entryX=0.5;entryY=0;entryDx=0;entryDy=0;" edge="1" parent="1" source="TQ9lDx-GRib5tjvYvlIN-16" target="TQ9lDx-GRib5tjvYvlIN-18">
          <mxGeometry width="50" height="50" relative="1" as="geometry">
            <mxPoint x="45" y="710" as="sourcePoint" />
            <mxPoint x="95" y="660" as="targetPoint" />
          </mxGeometry>
        </mxCell>
        <mxCell id="TQ9lDx-GRib5tjvYvlIN-24" value="" style="edgeStyle=orthogonalEdgeStyle;rounded=0;orthogonalLoop=1;jettySize=auto;html=1;" edge="1" parent="1" source="TQ9lDx-GRib5tjvYvlIN-23" target="TQ9lDx-GRib5tjvYvlIN-16">
          <mxGeometry relative="1" as="geometry" />
        </mxCell>
        <mxCell id="TQ9lDx-GRib5tjvYvlIN-23" value="Def Draw Triangle" style="ellipse;whiteSpace=wrap;html=1;" vertex="1" parent="1">
          <mxGeometry x="25" y="430" width="120" height="80" as="geometry" />
        </mxCell>
        <mxCell id="TQ9lDx-GRib5tjvYvlIN-26" value="Draw Triangle" style="whiteSpace=wrap;html=1;" vertex="1" parent="1">
          <mxGeometry x="430" y="400" width="120" height="60" as="geometry" />
        </mxCell>
      </root>
    </mxGraphModel>
  </diagram>
</mxfile>
